<svg width="12" height="10" viewBox="0 0 12 10" fill="none" xmlns="http://www.w3.org/2000/svg">
<g id="Arrow - Right 2">
<path id="Fill 1" d="M4.86724 0.214335L9.08646 7.06245C9.18046 7.21582 9.17146 7.41218 9.06045 7.55578C8.55943 8.2064 8.0514 8.78766 7.62438 9.17549C7.62438 9.17549 7.28237 9.5096 7.06535 9.65418C6.76934 9.88766 6.38232 10 6.0063 10C5.58428 10 5.18526 9.87691 4.86624 9.63171C4.80924 9.57602 4.55823 9.36404 4.35322 9.16377C3.07715 7.99539 0.969049 4.94549 0.330017 3.34141C0.227011 3.10793 0.0120006 2.48466 0 2.16131C0 1.84968 0.0680034 1.54879 0.217011 1.25962C0.422021 0.90403 0.740037 0.625612 1.11706 0.469307C1.37907 0.368686 2.16511 0.213358 2.18811 0.213358C2.74914 0.112736 3.53718 0.0375146 4.45722 0.00039219C4.62223 -0.00644615 4.78224 0.0765909 4.86724 0.214335Z" fill="white"/>
<path id="Fill 4" opacity="0.4" d="M7.14339 0.672032C6.95638 0.370168 7.19539 -0.00984793 7.55441 0.00480566C8.39645 0.0409512 9.13849 0.103473 9.69051 0.179672C9.70251 0.191395 10.6816 0.346723 11.0126 0.525496C11.6276 0.83713 12.0036 1.44867 12.0036 2.10613V2.16084C11.9926 2.58481 11.6166 3.4865 11.5936 3.4865C11.4046 3.94076 11.0846 4.53374 10.6996 5.17166C10.5256 5.45887 10.0985 5.46571 9.92152 5.1785L7.14339 0.672032Z" fill="white"/>
</g>
</svg>
